#tb 0: 1/25
0,          0,          0,        1,   149760, 0xcfffa013
0,          1,          1,        1,   149760, 0x8ae80654
0,          2,          2,        1,   149760, 0xa79915b8
0,          3,          3,        1,   149760, 0xcc5d4a1e
0,          4,          4,        1,   149760, 0x80636df7
0,          5,          5,        1,   149760, 0x9cf2c175
0,          6,          6,        1,   149760, 0xb7c9ecc5
0,          7,          7,        1,   149760, 0xd038133c
0,          8,          8,        1,   149760, 0x82c62409
0,          9,          9,        1,   149760, 0xf9ec8f18
0,         10,         10,        1,   149760, 0x4969ba2d
0,         11,         11,        1,   149760, 0xc4ece232
0,         12,         12,        1,   149760, 0xc346cab1
0,         13,         13,        1,   149760, 0xec83e8fd
0,         14,         14,        1,   149760, 0x08e6ee21
0,         15,         15,        1,   149760, 0x816818ac
0,         16,         16,        1,   149760, 0xc6822627
0,         17,         17,        1,   149760, 0x2d1d751f
0,         18,         18,        1,   149760, 0xceb8796d
0,         19,         19,        1,   149760, 0xa8919e96
0,         20,         20,        1,   149760, 0x6fce9abe
0,         21,         21,        1,   149760, 0x66fcbc8b
0,         22,         22,        1,   149760, 0xfc0acbdb
0,         23,         23,        1,   149760, 0x4fa7f7c3
0,         24,         24,        1,   149760, 0xcc1a00a8
0,         25,         25,        1,   149760, 0xe3b9aab4
0,         26,         26,        1,   149760, 0xc064a2a9
0,         27,         27,        1,   149760, 0x7c29bc1e
0,         28,         28,        1,   149760, 0x54b0a3f2
0,         29,         29,        1,   149760, 0x4781f75f
0,         30,         30,        1,   149760, 0x3722ec9b
0,         31,         31,        1,   149760, 0xb73fffc8
0,         32,         32,        1,   149760, 0xd4437e12
0,         33,         33,        1,   149760, 0xeb8bc09f
0,         34,         34,        1,   149760, 0xe6b0cf24
0,         35,         35,        1,   149760, 0xffbee400
0,         36,         36,        1,   149760, 0x71b3d1c2
0,         37,         37,        1,   149760, 0xeb05fce6
0,         38,         38,        1,   149760, 0x968a049c
0,         39,         39,        1,   149760, 0xf0b81987
0,         40,         40,        1,   149760, 0x8ec12318
0,         41,         41,        1,   149760, 0xb25f6f73
0,         42,         42,        1,   149760, 0x4d9972ea
0,         43,         43,        1,   149760, 0xb1be9ddd
0,         44,         44,        1,   149760, 0xd8f97724
0,         45,         45,        1,   149760, 0x88e9a071
0,         46,         46,        1,   149760, 0xec3a6985
0,         47,         47,        1,   149760, 0x5eb77758
0,         48,         48,        1,   149760, 0x7a2d6bc0
0,         49,         49,        1,   149760, 0x4c108b5a
0,         50,         50,        1,   149760, 0xd1609676
0,         51,         51,        1,   149760, 0xf497c5f2
0,         52,         52,        1,   149760, 0x7d52bf67
0,         53,         53,        1,   149760, 0xa9aeed34
0,         54,         54,        1,   149760, 0x8a7a03ad
0,         55,         55,        1,   149760, 0x7d6f34ba
0,         56,         56,        1,   149760, 0x3c7a3f33
0,         57,         57,        1,   149760, 0x220db437
0,         58,         58,        1,   149760, 0x9098aed1
0,         59,         59,        1,   149760, 0xba89f864
0,         60,         60,        1,   149760, 0xc6f0f02a
0,         61,         61,        1,   149760, 0xda71bdce
0,         62,         62,        1,   149760, 0x7532698a
0,         63,         63,        1,   149760, 0x20725283
0,         64,         64,        1,   149760, 0xd3378be9
0,         65,         65,        1,   149760, 0x0c449d3b
0,         66,         66,        1,   149760, 0xcb16554e
0,         67,         67,        1,   149760, 0x63bf54fd
0,         68,         68,        1,   149760, 0xc9b8125a
0,         69,         69,        1,   149760, 0x29391d98
0,         70,         70,        1,   149760, 0xaba92f83
0,         71,         71,        1,   149760, 0x278360ab
0,         72,         72,        1,   149760, 0x72a17719
0,         73,         73,        1,   149760, 0xc1057998
0,         74,         74,        1,   149760, 0x3e3fb884
0,         75,         75,        1,   149760, 0x4cadfcf5
0,         76,         76,        1,   149760, 0x265ef61a
0,         77,         77,        1,   149760, 0xc84e8e23
0,         78,         78,        1,   149760, 0xf23cf3c3
0,         79,         79,        1,   149760, 0x19280d25
0,         80,         80,        1,   149760, 0xfc1ed859
0,         81,         81,        1,   149760, 0x1a4caf70
0,         82,         82,        1,   149760, 0xcbc3e559
0,         83,         83,        1,   149760, 0x2284cd25
0,         84,         84,        1,   149760, 0x4eca841e
0,         85,         85,        1,   149760, 0xc5b2783b
0,         86,         86,        1,   149760, 0x5c07bffe
0,         87,         87,        1,   149760, 0x965b366d
0,         88,         88,        1,   149760, 0x96a87998
0,         89,         89,        1,   149760, 0x325fb5a8
0,         90,         90,        1,   149760, 0xfb50de20
0,         91,         91,        1,   149760, 0x4551ff6f
0,         92,         92,        1,   149760, 0x2c313114
0,         93,         93,        1,   149760, 0x585fbb08
0,         94,         94,        1,   149760, 0xab620fbc
0,         95,         95,        1,   149760, 0xac147ed6
0,         96,         96,        1,   149760, 0x8753dbea
0,         97,         97,        1,   149760, 0x7bd147a4
0,         98,         98,        1,   149760, 0x09db40f9
0,         99,         99,        1,   149760, 0x2c1d3e0e
0,        100,        100,        1,   149760, 0xb3678490
0,        101,        101,        1,   149760, 0xaa1ef03a
0,        102,        102,        1,   149760, 0xaa272a2b
0,        103,        103,        1,   149760, 0x765022ee
0,        104,        104,        1,   149760, 0xa77ae265
0,        105,        105,        1,   149760, 0xd48ce610
0,        106,        106,        1,   149760, 0xbbe32786
0,        107,        107,        1,   149760, 0x2ba067dd
0,        108,        108,        1,   149760, 0x28251c88
0,        109,        109,        1,   149760, 0xf7073bea
0,        110,        110,        1,   149760, 0x5ada8c9f
0,        111,        111,        1,   149760, 0x0ac5f0c3
0,        112,        112,        1,   149760, 0x5771b681
0,        113,        113,        1,   149760, 0x63b1aff4
0,        114,        114,        1,   149760, 0xe52f1c14
0,        115,        115,        1,   149760, 0x9fc6a873
0,        116,        116,        1,   149760, 0xaa7fa136
0,        117,        117,        1,   149760, 0xea0f1bc3
0,        118,        118,        1,   149760, 0xb960a92a
0,        119,        119,        1,   149760, 0x8a57440d
0,        120,        120,        1,   149760, 0x0975231e
0,        121,        121,        1,   149760, 0x01f4e2ca
0,        122,        122,        1,   149760, 0x2feba705
0,        123,        123,        1,   149760, 0xd8c2bb3e
0,        124,        124,        1,   149760, 0x96d8a2a3
0,        125,        125,        1,   149760, 0xc32ff8d3
0,        126,        126,        1,   149760, 0x1f8a8edb
0,        127,        127,        1,   149760, 0xc6242875
0,        128,        128,        1,   149760, 0x3d4df3de
0,        129,        129,        1,   149760, 0x43408010
0,        130,        130,        1,   149760, 0x2ecd8706
0,        131,        131,        1,   149760, 0x283c99f9
0,        132,        132,        1,   149760, 0xa659bde0
0,        133,        133,        1,   149760, 0x0edc3e70
0,        134,        134,        1,   149760, 0x9ab3077e
0,        135,        135,        1,   149760, 0x45a2bf0b
0,        136,        136,        1,   149760, 0x67aff7d9
0,        137,        137,        1,   149760, 0x4395fe6f
0,        138,        138,        1,   149760, 0x84e8ca70
0,        139,        139,        1,   149760, 0x4089d054
0,        140,        140,        1,   149760, 0x893bcd2c
0,        141,        141,        1,   149760, 0x36644083
0,        142,        142,        1,   149760, 0xa0cf4e7d
0,        143,        143,        1,   149760, 0x1ee06750
0,        144,        144,        1,   149760, 0xef952e66
0,        145,        145,        1,   149760, 0x7bc3936b
0,        146,        146,        1,   149760, 0x73820f10
0,        147,        147,        1,   149760, 0xf20e4fa7
0,        148,        148,        1,   149760, 0xedc2b195
0,        149,        149,        1,   149760, 0xd5dda892
0,        150,        150,        1,   149760, 0x065559e4
0,        151,        151,        1,   149760, 0xd1d1d2f7
0,        152,        152,        1,   149760, 0x7ea0069e
0,        153,        153,        1,   149760, 0x7eb18a44
0,        154,        154,        1,   149760, 0x5165627b
0,        155,        155,        1,   149760, 0x2bc02a08
0,        156,        156,        1,   149760, 0x054f4260
0,        157,        157,        1,   149760, 0x90206d1a
0,        158,        158,        1,   149760, 0x86a46770
0,        159,        159,        1,   149760, 0x877956ae
0,        160,        160,        1,   149760, 0xeaee7801
0,        161,        161,        1,   149760, 0xf5ae2e9d
0,        162,        162,        1,   149760, 0x65ef307b
0,        163,        163,        1,   149760, 0xbcd72d22
0,        164,        164,        1,   149760, 0x6f5555eb
0,        165,        165,        1,   149760, 0x5c5f43af
0,        166,        166,        1,   149760, 0x13c9fa8e
0,        167,        167,        1,   149760, 0x2236154f
0,        168,        168,        1,   149760, 0x13fdcefc
0,        169,        169,        1,   149760, 0x3e95cea3
0,        170,        170,        1,   149760, 0x11d73074
0,        171,        171,        1,   149760, 0x66a68f43
0,        172,        172,        1,   149760, 0x594ce4d2
0,        173,        173,        1,   149760, 0xbea4a3de
0,        174,        174,        1,   149760, 0x72258b54
0,        175,        175,        1,   149760, 0xf7598059
0,        176,        176,        1,   149760, 0x527b8538
0,        177,        177,        1,   149760, 0x9150a81a
0,        178,        178,        1,   149760, 0x9c227fd2
0,        179,        179,        1,   149760, 0x60347245
0,        180,        180,        1,   149760, 0x3b9f6f64
0,        181,        181,        1,   149760, 0xd6f37def
0,        182,        182,        1,   149760, 0xa06933dd
0,        183,        183,        1,   149760, 0x19e4ef4d
0,        184,        184,        1,   149760, 0x1fb958cb
0,        185,        185,        1,   149760, 0x3c4e3f19
0,        186,        186,        1,   149760, 0x98ab1123
0,        187,        187,        1,   149760, 0x0b4cdf66
0,        188,        188,        1,   149760, 0x75cd51ef
0,        189,        189,        1,   149760, 0x83e9617d
0,        190,        190,        1,   149760, 0xb97a175b
0,        191,        191,        1,   149760, 0x017520de
0,        192,        192,        1,   149760, 0xa72ecc38
0,        193,        193,        1,   149760, 0xfb493c45
0,        194,        194,        1,   149760, 0x6c8e40b4
0,        195,        195,        1,   149760, 0x4aa6672c
0,        196,        196,        1,   149760, 0x223f68e5
0,        197,        197,        1,   149760, 0x6257d660
0,        198,        198,        1,   149760, 0xade0f8af
0,        199,        199,        1,   149760, 0x8543652c
0,        200,        200,        1,   149760, 0x593b7957
0,        201,        201,        1,   149760, 0x90ce1910
0,        202,        202,        1,   149760, 0x3d617a3f
0,        203,        203,        1,   149760, 0x9336fbc0
0,        204,        204,        1,   149760, 0x26f1387b
0,        205,        205,        1,   149760, 0x0273a944
0,        206,        206,        1,   149760, 0x71b9b110
0,        207,        207,        1,   149760, 0x123fee6d
0,        208,        208,        1,   149760, 0xc4bde65b
0,        209,        209,        1,   149760, 0x646e3a45
0,        210,        210,        1,   149760, 0x987e6024
0,        211,        211,        1,   149760, 0x0bf6c9d4
0,        212,        212,        1,   149760, 0x20d6e1cf
0,        213,        213,        1,   149760, 0x5e0931df
0,        214,        214,        1,   149760, 0xd96e313c
0,        215,        215,        1,   149760, 0x04bbfcc5
0,        216,        216,        1,   149760, 0xa764de56
0,        217,        217,        1,   149760, 0x1e584d95
0,        218,        218,        1,   149760, 0x1779f283
0,        219,        219,        1,   149760, 0xfaefbc07
0,        220,        220,        1,   149760, 0x2e9b4e2b
0,        221,        221,        1,   149760, 0xeb6e3a42
0,        222,        222,        1,   149760, 0xd2cbe3d4
0,        223,        223,        1,   149760, 0xb9c4cf8c
0,        224,        224,        1,   149760, 0x167b5401
0,        225,        225,        1,   149760, 0x37846b87
0,        226,        226,        1,   149760, 0xd0d66b7c
0,        227,        227,        1,   149760, 0x4d61970e
0,        228,        228,        1,   149760, 0x987cbc29
0,        229,        229,        1,   149760, 0x3fa00111
0,        230,        230,        1,   149760, 0x42ba262f
0,        231,        231,        1,   149760, 0x9d40660b
0,        232,        232,        1,   149760, 0x3b678b28
0,        233,        233,        1,   149760, 0x3c72d081
0,        234,        234,        1,   149760, 0xd8ad0056
0,        235,        235,        1,   149760, 0x86052268
0,        236,        236,        1,   149760, 0x8ac3f213
0,        237,        237,        1,   149760, 0xe2cfb6fb
0,        238,        238,        1,   149760, 0x412b5544
0,        239,        239,        1,   149760, 0x468d2f6d
0,        240,        240,        1,   149760, 0x63f5e9d0
0,        241,        241,        1,   149760, 0x4318f07d
0,        242,        242,        1,   149760, 0xa0c7b7df
0,        243,        243,        1,   149760, 0x8ad37f38
0,        244,        244,        1,   149760, 0xa6101620
0,        245,        245,        1,   149760, 0x02b3d774
0,        246,        246,        1,   149760, 0x541a6c86
0,        247,        247,        1,   149760, 0xe11148f0
0,        248,        248,        1,   149760, 0x4a920c7e
0,        249,        249,        1,   149760, 0x878104a9
0,        250,        250,        1,   149760, 0xbb65dfda
0,        251,        251,        1,   149760, 0xda02bd47
0,        252,        252,        1,   149760, 0xe0529fd7
0,        253,        253,        1,   149760, 0x52619028
0,        254,        254,        1,   149760, 0x4e9c9f32
0,        255,        255,        1,   149760, 0x9ae49e70
0,        256,        256,        1,   149760, 0x851e84de
0,        257,        257,        1,   149760, 0x1709a3cd
0,        258,        258,        1,   149760, 0x3dace2eb
0,        259,        259,        1,   149760, 0x46fe3ebf
0,        260,        260,        1,   149760, 0xea53610c
0,        261,        261,        1,   149760, 0x0df3415f
0,        262,        262,        1,   149760, 0x29c57eec
0,        263,        263,        1,   149760, 0x1ed3a882
0,        264,        264,        1,   149760, 0xf3047aed
0,        265,        265,        1,   149760, 0x7a7d08cd
0,        266,        266,        1,   149760, 0xc69dd2ad
0,        267,        267,        1,   149760, 0x94d1c233
0,        268,        268,        1,   149760, 0x21d7eab9
0,        269,        269,        1,   149760, 0xd8755fda
0,        270,        270,        1,   149760, 0xa44fbf4a
0,        271,        271,        1,   149760, 0x624d42cb
0,        272,        272,        1,   149760, 0xf462482d
0,        273,        273,        1,   149760, 0x8dd0641d
0,        274,        274,        1,   149760, 0x9349bc12
0,        275,        275,        1,   149760, 0x0488137f
0,        276,        276,        1,   149760, 0x8088d83e
0,        277,        277,        1,   149760, 0x051895e4
0,        278,        278,        1,   149760, 0x0cc16c74
0,        279,        279,        1,   149760, 0xcdc62942
0,        280,        280,        1,   149760, 0x6d1392aa
0,        281,        281,        1,   149760, 0x61e2e1da
0,        282,        282,        1,   149760, 0x5cb06ae9
0,        283,        283,        1,   149760, 0x5110b773
0,        284,        284,        1,   149760, 0x050db1cb
0,        285,        285,        1,   149760, 0x353dfc85
0,        286,        286,        1,   149760, 0x96ac57f2
0,        287,        287,        1,   149760, 0x7e925578
0,        288,        288,        1,   149760, 0x4eaa64c0
0,        289,        289,        1,   149760, 0x10b6d8cf
0,        290,        290,        1,   149760, 0x645317c2
0,        291,        291,        1,   149760, 0xcf60e8e2
0,        292,        292,        1,   149760, 0x38dc8503
0,        293,        293,        1,   149760, 0xf88bd43b
0,        294,        294,        1,   149760, 0x284b675e
0,        295,        295,        1,   149760, 0xba9ac819
0,        296,        296,        1,   149760, 0xd913bba8
0,        297,        297,        1,   149760, 0x50612c15
0,        298,        298,        1,   149760, 0x8ec14fb1
0,        299,        299,        1,   149760, 0x2dd30b7d
0,        300,        300,        1,   149760, 0x5a3f52cf
0,        301,        301,        1,   149760, 0x95169561
0,        302,        302,        1,   149760, 0x6ede7115
0,        303,        303,        1,   149760, 0x70e435e0
0,        304,        304,        1,   149760, 0x496df85a
0,        305,        305,        1,   149760, 0xdd583698
0,        306,        306,        1,   149760, 0xee46c909
0,        307,        307,        1,   149760, 0x4b0632ed
0,        308,        308,        1,   149760, 0x744e4d23
0,        309,        309,        1,   149760, 0xc72d8111
0,        310,        310,        1,   149760, 0x6d6c62d4
0,        311,        311,        1,   149760, 0xbc39103c
0,        312,        312,        1,   149760, 0x1b0548e5
0,        313,        313,        1,   149760, 0xac760971
0,        314,        314,        1,   149760, 0x0bbfeab1
0,        315,        315,        1,   149760, 0x843ca731
0,        316,        316,        1,   149760, 0x6a8dd5c9
0,        317,        317,        1,   149760, 0xd5e19d6e
0,        318,        318,        1,   149760, 0xde1e9259
0,        319,        319,        1,   149760, 0xa9c6aecf
0,        320,        320,        1,   149760, 0x4e3c1463
0,        321,        321,        1,   149760, 0x20e95cd5
0,        322,        322,        1,   149760, 0x26b9c119
0,        323,        323,        1,   149760, 0x0284eab3
0,        324,        324,        1,   149760, 0x128544f3
0,        325,        325,        1,   149760, 0x5c33579c
0,        326,        326,        1,   149760, 0x58e48fc1
0,        327,        327,        1,   149760, 0x46d20ba5
0,        328,        328,        1,   149760, 0x232478d4
0,        329,        329,        1,   149760, 0x4299f014
0,        330,        330,        1,   149760, 0x68e08339
0,        331,        331,        1,   149760, 0x01c0ca97
0,        332,        332,        1,   149760, 0xad7071d6
0,        333,        333,        1,   149760, 0xa1efff2e
0,        334,        334,        1,   149760, 0xe788aa06
0,        335,        335,        1,   149760, 0xa203d648
0,        336,        336,        1,   149760, 0xdec84349
0,        337,        337,        1,   149760, 0xb15fc868
0,        338,        338,        1,   149760, 0x6ca04511
0,        339,        339,        1,   149760, 0xc4b95d7e
0,        340,        340,        1,   149760, 0xa3d0d178
0,        341,        341,        1,   149760, 0xb4835e5f
0,        342,        342,        1,   149760, 0xcff22407
0,        343,        343,        1,   149760, 0x8259ad5a
0,        344,        344,        1,   149760, 0x9cb2f71a
0,        345,        345,        1,   149760, 0xf2d3cae6
0,        346,        346,        1,   149760, 0xbdaa58c5
0,        347,        347,        1,   149760, 0x2c0ec9bd
0,        348,        348,        1,   149760, 0x63357b56
0,        349,        349,        1,   149760, 0xc92b5672
0,        350,        350,        1,   149760, 0xc2deae0d
0,        351,        351,        1,   149760, 0x111a214d
0,        352,        352,        1,   149760, 0xbb7a0383
0,        353,        353,        1,   149760, 0x31b6d2ad
0,        354,        354,        1,   149760, 0x87f8b103
0,        355,        355,        1,   149760, 0xd035ede8
0,        356,        356,        1,   149760, 0xf021cb64
0,        357,        357,        1,   149760, 0x18a1c19c
0,        358,        358,        1,   149760, 0xc51980ac
0,        359,        359,        1,   149760, 0x2394c13e
0,        360,        360,        1,   149760, 0x2b27c7ee
0,        361,        361,        1,   149760, 0x40e0670f
0,        362,        362,        1,   149760, 0xbc0f3989
0,        363,        363,        1,   149760, 0x391048d6
0,        364,        364,        1,   149760, 0x1bc0e92c
0,        365,        365,        1,   149760, 0xa7e278d9
0,        366,        366,        1,   149760, 0xb4123421
0,        367,        367,        1,   149760, 0x106bb0e1
0,        368,        368,        1,   149760, 0x4c2a61d2
0,        369,        369,        1,   149760, 0x69aaee6e
0,        370,        370,        1,   149760, 0x925e5432
0,        371,        371,        1,   149760, 0x06d6d786
0,        372,        372,        1,   149760, 0xd431fba8
0,        373,        373,        1,   149760, 0x54092812
0,        374,        374,        1,   149760, 0xb8e10742
0,        375,        375,        1,   149760, 0x2ee782d3
0,        376,        376,        1,   149760, 0x210ff556
0,        377,        377,        1,   149760, 0xa41cf41e
0,        378,        378,        1,   149760, 0xbe852e5a
0,        379,        379,        1,   149760, 0x4a89b5c5
0,        380,        380,        1,   149760, 0xe44408d1
0,        381,        381,        1,   149760, 0x503197f3
0,        382,        382,        1,   149760, 0x686bf74e
0,        383,        383,        1,   149760, 0xb96fd46b
0,        384,        384,        1,   149760, 0x9a926a62
0,        385,        385,        1,   149760, 0x97cf58e9
0,        386,        386,        1,   149760, 0x0e7840af
0,        387,        387,        1,   149760, 0x00aa85e9
0,        388,        388,        1,   149760, 0x24c4fd96
0,        389,        389,        1,   149760, 0xe520844b
0,        390,        390,        1,   149760, 0xd4755d80
0,        391,        391,        1,   149760, 0x9cd4b85c
0,        392,        392,        1,   149760, 0xd01aa4ad
0,        393,        393,        1,   149760, 0xa5479aa5
0,        394,        394,        1,   149760, 0x74c066d4
0,        395,        395,        1,   149760, 0xe1a35a46
0,        396,        396,        1,   149760, 0x714aeafb
0,        397,        397,        1,   149760, 0xb3e0f80e
0,        398,        398,        1,   149760, 0x99663804
0,        399,        399,        1,   149760, 0x3a40a623
0,        400,        400,        1,   149760, 0x91b4d995
0,        401,        401,        1,   149760, 0x6edd8a1f
0,        402,        402,        1,   149760, 0x1f763e9a
0,        403,        403,        1,   149760, 0x932b79d4
0,        404,        404,        1,   149760, 0x6a1a9755
0,        405,        405,        1,   149760, 0x403562c8
0,        406,        406,        1,   149760, 0x6486231b
0,        407,        407,        1,   149760, 0x3c2bfb98
0,        408,        408,        1,   149760, 0x198a3cee
0,        409,        409,        1,   149760, 0x4d2f7817
0,        410,        410,        1,   149760, 0xd7b189a7
0,        411,        411,        1,   149760, 0x9ad0ba76
0,        412,        412,        1,   149760, 0xea8d8859
0,        413,        413,        1,   149760, 0x30fae052
0,        414,        414,        1,   149760, 0x55b1763c
0,        415,        415,        1,   149760, 0x4be39b5b
0,        416,        416,        1,   149760, 0xec332a7f
0,        417,        417,        1,   149760, 0x226f7c74
0,        418,        418,        1,   149760, 0x0a82fa19
0,        419,        419,        1,   149760, 0x8bb5ca7d
0,        420,        420,        1,   149760, 0xe59f21e1
0,        421,        421,        1,   149760, 0x20450c0b
0,        422,        422,        1,   149760, 0xd9fcc726
0,        423,        423,        1,   149760, 0xf4e9a639
0,        424,        424,        1,   149760, 0x932602d1
0,        425,        425,        1,   149760, 0xcdfdb2c6
0,        426,        426,        1,   149760, 0xc91929b2
0,        427,        427,        1,   149760, 0x6b24081c
0,        428,        428,        1,   149760, 0xa2e00bd5
0,        429,        429,        1,   149760, 0x7536baea
0,        430,        430,        1,   149760, 0x5a4279b7
0,        431,        431,        1,   149760, 0x48741fb4
0,        432,        432,        1,   149760, 0xe0a71c39
0,        433,        433,        1,   149760, 0x4422b4cf
0,        434,        434,        1,   149760, 0x3ddc7752
0,        435,        435,        1,   149760, 0x209ebb6b
0,        436,        436,        1,   149760, 0x47cc746f
0,        437,        437,        1,   149760, 0x159f56a4
0,        438,        438,        1,   149760, 0x22e39511
0,        439,        439,        1,   149760, 0x78698fbd
0,        440,        440,        1,   149760, 0x7bc88f86
0,        441,        441,        1,   149760, 0x44a423d1
0,        442,        442,        1,   149760, 0x25fadf02
0,        443,        443,        1,   149760, 0xd360cfee
0,        444,        444,        1,   149760, 0xcd6c409f
0,        445,        445,        1,   149760, 0xd5905aca
0,        446,        446,        1,   149760, 0x621f3edc
0,        447,        447,        1,   149760, 0x79bd347e
0,        448,        448,        1,   149760, 0xdb9d163d
0,        449,        449,        1,   149760, 0x7282e4d6
0,        450,        450,        1,   149760, 0x8d6dc686
0,        451,        451,        1,   149760, 0x35132151
0,        452,        452,        1,   149760, 0x27a05c87
0,        453,        453,        1,   149760, 0x8e12df27
0,        454,        454,        1,   149760, 0xf2fb72cd
0,        455,        455,        1,   149760, 0xea71796e
0,        456,        456,        1,   149760, 0xbd2ffeec
0,        457,        457,        1,   149760, 0xdb849b70
0,        458,        458,        1,   149760, 0xc8193666
0,        459,        459,        1,   149760, 0x7dab4b05
0,        460,        460,        1,   149760, 0x83a94327
0,        461,        461,        1,   149760, 0x56a2ca36
0,        462,        462,        1,   149760, 0x7d20c938
0,        463,        463,        1,   149760, 0xfbbfa0bd
0,        464,        464,        1,   149760, 0xea020d13
0,        465,        465,        1,   149760, 0x2ef8c012
0,        466,        466,        1,   149760, 0x36a10f18
0,        467,        467,        1,   149760, 0x56e538e3
0,        468,        468,        1,   149760, 0xf98d9ca8
0,        469,        469,        1,   149760, 0xeba06818
0,        470,        470,        1,   149760, 0x7d9c6f79
0,        471,        471,        1,   149760, 0xd7173a90
0,        472,        472,        1,   149760, 0xff4ced8d
0,        473,        473,        1,   149760, 0xe7d92ff8
0,        474,        474,        1,   149760, 0x4f020382
0,        475,        475,        1,   149760, 0x4e93292a
0,        476,        476,        1,   149760, 0x08dc52c7
0,        477,        477,        1,   149760, 0xbff9557e
0,        478,        478,        1,   149760, 0x1caa8bc5
0,        479,        479,        1,   149760, 0x9b7aaf9a
0,        480,        480,        1,   149760, 0x2cb89025
0,        481,        481,        1,   149760, 0x18e2a4ad
0,        482,        482,        1,   149760, 0xf50dce5e
0,        483,        483,        1,   149760, 0x9f87c44f
0,        484,        484,        1,   149760, 0xbfdc521d
0,        485,        485,        1,   149760, 0xa06f5b06
0,        486,        486,        1,   149760, 0xa169a6fe
0,        487,        487,        1,   149760, 0xce6280d4
0,        488,        488,        1,   149760, 0x056c21d6
0,        489,        489,        1,   149760, 0x70b068df
0,        490,        490,        1,   149760, 0x1097459b
0,        491,        491,        1,   149760, 0xef1925f1
0,        492,        492,        1,   149760, 0x6969b893
0,        493,        493,        1,   149760, 0x0203fc33
0,        494,        494,        1,   149760, 0x812e46b9
0,        495,        495,        1,   149760, 0x7379207f
0,        496,        496,        1,   149760, 0xff11e733
0,        497,        497,        1,   149760, 0xc5af45a8
0,        498,        498,        1,   149760, 0x3ec6b250
0,        499,        499,        1,   149760, 0xb90ddf3a
